<svg width="24" height="24" viewBox="0 0 24 24" fill="none" xmlns="http://www.w3.org/2000/svg">
<path fill-rule="evenodd" clip-rule="evenodd" d="M20.3991 9.14597L21.1193 9.86597C21.6895 10.426 21.9996 11.186 21.9996 11.986C22.0096 12.786 21.6995 13.547 21.1393 14.116C21.1327 14.1233 21.126 14.1297 21.1193 14.1362C21.116 14.1394 21.1127 14.1426 21.1093 14.146L20.3991 14.856C20.119 15.136 19.9589 15.516 19.9589 15.917V16.946C19.9589 18.606 18.6084 19.957 16.9478 19.957H15.9174C15.5173 19.957 15.1372 20.116 14.8571 20.396L14.1368 21.116C13.5466 21.707 12.7763 21.996 12.006 21.996C11.2357 21.996 10.4655 21.707 9.87525 21.127L9.14498 20.396C8.86488 20.116 8.48474 19.957 8.0846 19.957H7.05423C5.39362 19.957 4.04313 18.606 4.04313 16.946V15.917C4.04313 15.516 3.88308 15.136 3.60298 14.846L2.88271 14.136C1.71229 12.967 1.70229 11.056 2.87271 9.87697L3.60298 9.14597C3.88308 8.86597 4.04313 8.48597 4.04313 8.07597V7.05597C4.04313 5.39597 5.39362 4.04697 7.05423 4.04697H8.0846C8.48474 4.04697 8.86488 3.88597 9.14498 3.60597L9.86524 2.88597C11.0357 1.70697 12.9464 1.70697 14.1268 2.87697L14.8571 3.60597C15.1372 3.88597 15.5173 4.04697 15.9174 4.04697H16.9478C18.6084 4.04697 19.9589 5.39597 19.9589 7.05597V8.08697C19.9589 8.48597 20.119 8.86597 20.3991 9.14597ZM9.42509 15.446C9.66517 15.446 9.88525 15.356 10.0453 15.186L15.1872 10.047C15.5273 9.70697 15.5273 9.14597 15.1872 8.80597C14.8471 8.46697 14.2969 8.46697 13.9567 8.80597L8.81486 13.946C8.47474 14.286 8.47474 14.846 8.81486 15.186C8.97492 15.356 9.195 15.446 9.42509 15.446ZM13.6966 14.566C13.6966 15.056 14.0868 15.446 14.577 15.446C15.0571 15.446 15.4473 15.056 15.4473 14.566C15.4473 14.087 15.0571 13.696 14.577 13.696C14.0868 13.696 13.6966 14.087 13.6966 14.566ZM9.43509 8.55597C9.91526 8.55597 10.3054 8.94597 10.3054 9.42597C10.3054 9.91697 9.91526 10.306 9.43509 10.306C8.95492 10.306 8.55477 9.91697 8.55477 9.42597C8.55477 8.94597 8.95492 8.55597 9.43509 8.55597Z" fill="#C67C4E"/>
</svg>
